HIERARCHY
ROOT Hips
{
	OFFSET 0.000000 0.000000 0.000000
	CHANNELS 6 Xposition Yposition Zposition Xrotation Yrotation Zrotation
	JOINT LeftUpLeg_virtual
	{
		OFFSET 0.000000 0.000000 0.000000
		CHANNELS 3 Xrotation Yrotation Zrotation
		JOINT LeftUpLeg
		{
			OFFSET 13.026900 -6.336304 -1.092800
			CHANNELS 3 Xrotation Yrotation Zrotation
			JOINT LeftLeg
			{
				OFFSET 0.524474 -46.096886 9.782700
				CHANNELS 3 Xrotation Yrotation Zrotation
				JOINT LeftFoot
				{
					OFFSET -0.524474 -53.427422 -12.948200
					CHANNELS 3 Xrotation Yrotation Zrotation
					JOINT LeftToeBase
					{
						OFFSET 0.192200 -14.009700 16.364100
						CHANNELS 3 Xrotation Yrotation Zrotation
						JOINT LeftToe_End
						{
							OFFSET -1.784700 -0.561700 9.474800
							CHANNELS 3 Xrotation Yrotation Zrotation
							End Site
							{
								OFFSET 0 0 0
							}
						}
					}
				}
			}
		}
	}
	JOINT RightUpLeg_virtual
	{
		OFFSET 0.000000 0.000000 0.000000
		CHANNELS 3 Xrotation Yrotation Zrotation
		JOINT RightUpLeg
		{
			OFFSET -12.883000 -6.336304 -1.092800
			CHANNELS 3 Xrotation Yrotation Zrotation
			JOINT RightLeg
			{
				OFFSET -0.524587 -46.096825 9.782800
				CHANNELS 3 Xrotation Yrotation Zrotation
				JOINT RightFoot
				{
					OFFSET 0.524587 -53.427383 -12.948300
					CHANNELS 3 Xrotation Yrotation Zrotation
					JOINT RightToeBase
					{
						OFFSET -0.192200 -14.009700 16.364100
						CHANNELS 3 Xrotation Yrotation Zrotation
						JOINT RightToe_End
						{
							OFFSET 1.784700 -0.561700 9.474800
							CHANNELS 3 Xrotation Yrotation Zrotation
							End Site
							{
								OFFSET 0 0 0
							}
						}
					}
				}
			}
		}
	}
	JOINT Spine_virtual
	{
		OFFSET 0.000000 0.000000 0.000000
		CHANNELS 3 Xrotation Yrotation Zrotation
		JOINT Spine
		{
			OFFSET 0.072000 7.257294 -0.789700
			CHANNELS 3 Xrotation Yrotation Zrotation
			JOINT Spine1
			{
				OFFSET 0.000000 12.508769 -0.658067
				CHANNELS 3 Xrotation Yrotation Zrotation
				JOINT Spine1_split
				{
					OFFSET 0.000000 12.508769 -0.658067
					CHANNELS 3 Xrotation Yrotation Zrotation
					JOINT Spine2
					{
						OFFSET 0.000000 12.508769 -0.658067
						CHANNELS 3 Xrotation Yrotation Zrotation
						JOINT Neck_virtual
						{
							OFFSET 0.000000 0.000000 0.000000
							CHANNELS 3 Xrotation Yrotation Zrotation
							JOINT Neck
							{
								OFFSET 0.000000 14.033295 7.520400
								CHANNELS 3 Xrotation Yrotation Zrotation
								JOINT Head
								{
									OFFSET 0.000000 8.198502 5.703100
									CHANNELS 3 Xrotation Yrotation Zrotation
									JOINT HeadTop_End
									{
										OFFSET 0.000000 17.760803 13.332701
										CHANNELS 3 Xrotation Yrotation Zrotation
										End Site
										{
											OFFSET 0 0 0
										}
									}
								}
							}
						}
						JOINT LeftShoulder_virtual
						{
							OFFSET 0.000000 0.000000 0.000000
							CHANNELS 3 Xrotation Yrotation Zrotation
							JOINT LeftShoulder
							{
								OFFSET 6.292450 5.785301 -0.669000
								CHANNELS 3 Xrotation Yrotation Zrotation
								JOINT LeftShoulder_split
								{
									OFFSET 6.292450 5.785301 -0.669000
									CHANNELS 3 Xrotation Yrotation Zrotation
									JOINT LeftArm
									{
										OFFSET 13.907140 -6.093903 1.965100
										CHANNELS 3 Xrotation Yrotation Zrotation
										JOINT LeftForeArm
										{
											OFFSET 34.140198 0.000000 0.000000
											CHANNELS 3 Xrotation Yrotation Zrotation
											JOINT LeftHand
											{
												OFFSET 40.960209 0.000000 0.000000
												CHANNELS 3 Xrotation Yrotation Zrotation
												End Site
												{
													OFFSET 0 0 0
												}
											}
										}
									}
								}
							}
						}
						JOINT RightShoulder_virtual
						{
							OFFSET 0.000000 0.000000 0.000000
							CHANNELS 3 Xrotation Yrotation Zrotation
							JOINT RightShoulder
							{
								OFFSET -6.292450 5.785301 -0.669000
								CHANNELS 3 Xrotation Yrotation Zrotation
								JOINT RightShoulder_split
								{
									OFFSET -6.292450 5.785301 -0.669000
									CHANNELS 3 Xrotation Yrotation Zrotation
									JOINT RightArm
									{
										OFFSET -13.907140 -6.093903 1.965100
										CHANNELS 3 Xrotation Yrotation Zrotation
										JOINT RightForeArm
										{
											OFFSET -34.140198 0.000000 0.000000
											CHANNELS 3 Xrotation Yrotation Zrotation
											JOINT RightHand
											{
												OFFSET -40.960209 0.000000 0.000000
												CHANNELS 3 Xrotation Yrotation Zrotation
												End Site
												{
													OFFSET 0 0 0
												}
											}
										}
									}
								}
							}
						}
					}
				}
			}
		}
	}
}
MOTION
Frames: 8
Frame Time: 0.03333333
-2.597678 113.420227 -4.680664 0.000000 0.000000 0.000000 1.891807 5.977783 5.617603 -11.534300 5.155959 3.960468 12.620475 5.266656 0.167279 -1.031909 0.543066 -6.512413 -0.154476 -0.038079 -1.322922 0.000000 0.000000 0.000000 2.435135 5.457484 5.775851 -19.170312 -9.905048 -14.524645 32.572079 0.375052 -1.533798 -13.382028 -9.298842 7.224667 -3.047459 0.201030 0.317066 0.000000 0.000000 0.000000 2.787943 5.925530 5.361430 8.054899 -0.898335 8.010601 2.261511 -0.187361 1.562741 0.798722 -0.728394 0.457071 0.000000 0.000000 0.000000 1.429173 -0.174097 1.323845 0.623284 0.448790 2.691898 -4.771002 -13.507304 -1.152449 0.000000 0.000000 0.000000 1.889501 -0.245045 1.363744 1.100898 -4.992962 -12.059564 0.338003 0.075208 -1.358827 6.797306 -7.360746 -40.900559 0.181967 -68.791152 0.072478 0.000000 0.000000 0.000000 2.061808 -0.091952 1.245648 1.271407 16.552383 13.573910 -1.175347 1.199746 0.143709 -27.519602 13.956009 60.784879 -135.574583 88.454269 135.092536 0.000000 0.000000 0.000000 
-2.587754 113.411072 -4.577328 0.000000 0.000000 0.000000 1.874967 5.736710 5.645353 -11.319615 5.151408 3.985730 12.570980 5.406154 0.195643 -1.159455 0.498079 -6.530307 -0.125006 -0.033910 -1.331239 0.000000 0.000000 0.000000 2.411589 5.193900 5.806252 -18.968567 -9.329517 -14.367875 32.531580 0.060614 -1.518367 -13.472209 -9.388297 7.291366 -3.003450 0.197731 0.303964 0.000000 0.000000 0.000000 2.791022 5.802739 5.373511 7.997840 -1.218516 8.036496 2.228935 -0.226369 1.558925 0.809500 -0.826233 0.421611 0.000000 0.000000 0.000000 1.430572 -0.211458 1.307450 0.612042 0.632253 2.539181 -5.481534 -13.245609 -1.375778 0.000000 0.000000 0.000000 1.856110 -0.274402 1.379611 1.045217 -5.117062 -12.197350 0.452866 0.297422 -1.433757 7.086305 -7.660087 -40.858041 0.228866 -68.974529 0.057011 0.000000 0.000000 0.000000 2.035032 -0.163515 1.244998 1.357525 17.037873 13.741638 -1.300029 1.377847 0.192880 -21.990299 16.543673 60.472760 -170.407155 84.223554 169.884099 0.000000 0.000000 0.000000 
-2.536750 113.409370 -4.502316 0.000000 0.000000 0.000000 1.815156 5.475915 5.649970 -11.082108 5.173164 4.005192 12.549039 5.587568 0.214127 -1.313886 0.426819 -6.525460 -0.079691 -0.031687 -1.335675 0.000000 0.000000 0.000000 2.341472 4.918960 5.809986 -18.695264 -8.740782 -14.214590 32.434550 -0.258959 -1.497860 -13.497349 -9.470031 7.365003 -2.955318 0.193448 0.291694 0.000000 0.000000 0.000000 2.775127 5.611920 5.359877 7.949060 -1.566880 8.036473 2.189603 -0.307597 1.549786 0.832394 -0.881954 0.381484 0.000000 0.000000 0.000000 1.421269 -0.283849 1.297215 0.618778 0.821885 2.357609 -6.184351 -12.906371 -1.657996 0.000000 0.000000 0.000000 1.822510 -0.337400 1.395870 0.990755 -5.269380 -12.262017 0.547895 0.554493 -1.443319 7.473055 -8.105435 -40.778541 0.279516 -69.077931 0.028953 0.000000 0.000000 0.000000 2.005491 -0.268268 1.248788 1.471379 17.595667 13.730955 -1.385817 1.480233 0.314387 -16.861229 20.164003 59.567815 -174.717304 80.858040 174.162065 0.000000 0.000000 0.000000 
-2.446889 113.422043 -4.444134 0.000000 0.000000 0.000000 1.702088 5.184465 5.634248 -10.805252 5.212608 4.011481 12.549076 5.808885 0.228598 -1.497141 0.344665 -6.512951 -0.023686 -0.030325 -1.334242 0.000000 0.000000 0.000000 2.213438 4.619061 5.790887 -18.368614 -8.159417 -14.071808 32.296485 -0.562943 -1.473206 -13.430658 -9.535511 7.465387 -2.947652 0.187877 0.280541 0.000000 0.000000 0.000000 2.717593 5.320682 5.323088 7.902982 -1.918063 7.985810 2.146195 -0.413240 1.530084 0.852096 -0.911964 0.366661 0.000000 0.000000 0.000000 1.405278 -0.375132 1.282681 0.643453 1.002104 2.145738 -6.822526 -12.523678 -1.977927 0.000000 0.000000 0.000000 1.792666 -0.420708 1.406504 0.939806 -5.421560 -12.232042 0.619432 0.852835 -1.410769 7.903950 -8.674425 -40.683383 0.369003 -69.141677 0.026104 0.000000 0.000000 0.000000 1.972419 -0.390852 1.247624 1.603240 18.281158 13.574256 -1.505769 1.599676 0.393788 -12.134569 24.746141 57.781959 -176.062264 78.773091 175.484990 0.000000 0.000000 0.000000 
-2.324882 113.446785 -4.398281 0.000000 0.000000 0.000000 1.531373 4.856262 5.598171 -10.467159 5.274209 4.005288 12.552193 6.075018 0.242221 -1.711574 0.273812 -6.493559 0.033037 -0.029801 -1.324741 0.000000 0.000000 0.000000 2.028879 4.277561 5.749622 -18.011940 -7.593853 -13.937348 32.123418 -0.837315 -1.448125 -13.278888 -9.578602 7.577454 -2.975920 0.181136 0.272865 0.000000 0.000000 0.000000 2.598734 4.927207 5.268424 7.852495 -2.238114 7.863845 2.109507 -0.522186 1.491705 0.811788 -0.916046 0.373674 0.000000 0.000000 0.000000 1.383593 -0.458718 1.253697 0.698277 1.167243 1.908263 -7.357365 -12.175944 -2.307424 0.000000 0.000000 0.000000 1.772749 -0.503958 1.406032 0.889399 -5.564512 -12.097486 0.690258 1.141148 -1.341352 8.278669 -9.310659 -40.600263 0.485096 -69.218114 0.048436 0.000000 0.000000 0.000000 1.917930 -0.509520 1.233486 1.742804 19.123780 13.287146 -1.523896 1.725199 0.335455 -7.743286 30.092010 54.855281 -176.189565 77.867094 175.590612 0.000000 0.000000 0.000000 
-2.178094 113.483215 -4.356796 0.000000 0.000000 0.000000 1.310940 4.472665 5.537764 -10.051855 5.372708 3.989986 12.546334 6.391721 0.254861 -1.964738 0.232028 -6.461407 0.087286 -0.029396 -1.306987 0.000000 0.000000 0.000000 1.791309 3.883036 5.684164 -17.642727 -7.044598 -13.805961 31.914486 -1.075009 -1.425599 -13.071164 -9.597757 7.669500 -3.022281 0.173437 0.271000 0.000000 0.000000 0.000000 2.414573 4.455541 5.192113 7.791127 -2.492134 7.658765 2.079453 -0.609871 1.427769 0.715014 -0.996496 0.411235 0.000000 0.000000 0.000000 1.357209 -0.512058 1.201702 0.783720 1.302397 1.662444 -7.778534 -11.939474 -2.625789 0.000000 0.000000 0.000000 1.754104 -0.565551 1.388722 0.836456 -5.705134 -11.870088 0.785276 1.433290 -1.258113 8.483483 -9.979225 -40.571320 0.617107 -69.348359 0.096606 0.000000 0.000000 0.000000 1.835168 -0.609693 1.196876 1.887624 20.132228 12.913503 -1.492941 1.869212 0.219285 -3.489786 35.837869 50.647827 -175.577198 77.954773 174.954681 0.000000 0.000000 0.000000 
-2.015364 113.530121 -4.324753 0.000000 0.000000 0.000000 1.057675 4.008830 5.441987 -9.564192 5.523330 3.984252 12.535319 6.759268 0.266526 -2.266541 0.231196 -6.410710 0.151946 -0.030347 -1.285105 0.000000 0.000000 0.000000 1.532211 3.432796 5.585575 -17.292847 -6.497457 -13.670478 31.674019 -1.271307 -1.406311 -12.815016 -9.592254 7.724649 -3.074776 0.165362 0.274219 0.000000 0.000000 0.000000 2.172529 3.928205 5.085261 7.716444 -2.656873 7.367249 2.059595 -0.665665 1.336818 0.647243 -1.178715 0.448105 0.000000 0.000000 0.000000 1.333485 -0.525633 1.125475 0.860897 1.407154 1.431060 -8.103752 -11.895351 -2.909925 0.000000 0.000000 0.000000 1.723124 -0.594394 1.348196 0.776960 -5.858582 -11.591306 0.899623 1.656436 -1.137981 8.450232 -10.641539 -40.622875 0.717293 -69.532200 0.137247 0.000000 0.000000 0.000000 1.720792 -0.681354 1.138190 2.030617 21.291289 12.534201 -1.470992 1.991065 0.126108 0.845960 41.596460 45.242022 -174.355673 78.807638 173.718307 0.000000 0.000000 0.000000 
-1.841000 113.582222 -4.307533 0.000000 0.000000 0.000000 0.799279 3.454949 5.293120 -9.027458 5.733486 4.010767 12.537017 7.165746 0.272815 -2.639756 0.272961 -6.339697 0.233732 -0.031596 -1.262457 0.000000 0.000000 0.000000 1.273944 2.918937 5.438229 -16.989440 -5.947993 -13.520331 31.400528 -1.416566 -1.389565 -12.482820 -9.559185 7.753013 -3.130091 0.157659 0.278612 0.000000 0.000000 0.000000 1.902277 3.368805 4.933753 7.634141 -2.718342 7.006811 2.052027 -0.687238 1.224990 0.656167 -1.396574 0.486919 0.000000 0.000000 0.000000 1.309576 -0.500782 1.034769 0.922361 1.464283 1.233131 -8.362639 -12.086073 -3.152545 0.000000 0.000000 0.000000 1.677882 -0.586894 1.287067 0.711225 -6.046057 -11.298323 1.022551 1.827562 -1.008690 8.188085 -11.292661 -40.750480 0.745083 -69.712701 0.140600 0.000000 0.000000 0.000000 1.581682 -0.720595 1.065666 2.168924 22.574608 12.196817 -1.442227 2.063207 0.129401 5.430764 46.934867 38.815391 -172.393264 80.307547 171.763521 0.000000 0.000000 0.000000 
